# xmcd CD database file
#
# Track frame offsets:
#	150
#	59868
#	120939
#	164065
#	191636
#	234870
#
# Disc length: 3254 seconds
#
# Revision: 0
# Processed by: cddbd v1.5PL3 Copyright (c) Steve Scherf et al.
# Submitted via: CDex 1.50Beta7
#
DISCID=4f0cb406
DTITLE=ShibusaShirazu - 「無臭？」 シブサ ガ クサイ
DYEAR=1900
DGENRE=Jazz
TTITLE0=バルタザール　〜　アングラーズ
TTITLE1=天秤
TTITLE2=大沼ブルース
TTITLE3=フルムーンパーティ
TTITLE4=行方知れズ
TTITLE5=ボーナストラック
EXTD=
EXTT0=
EXTT1=
EXTT2=
EXTT3=
EXTT4=
EXTT5=
PLAYORDER=
